<?xml version="1.0" encoding="UTF-8" standalone="no"?>
<svg
   xmlns:dc="http://purl.org/dc/elements/1.1/"
   xmlns:cc="http://creativecommons.org/ns#"
   xmlns:rdf="http://www.w3.org/1999/02/22-rdf-syntax-ns#"
   xmlns:svg="http://www.w3.org/2000/svg"
   xmlns="http://www.w3.org/2000/svg"
   xmlns:xlink="http://www.w3.org/1999/xlink"
   width="460.24347"
   height="460.24347"
   viewBox="0 0 460.24346 460.24348"
   version="1.1"
   id="svg5"
   xml:space="preserve"><metadata
     id="metadata132"><rdf:RDF><cc:Work
         rdf:about=""><dc:format>image/svg+xml</dc:format><dc:type
           rdf:resource="http://purl.org/dc/dcmitype/StillImage" /><dc:title></dc:title></cc:Work></rdf:RDF></metadata><defs
     id="defs2"><linearGradient
       id="linearGradient44435"><stop
         style="stop-color:#000000;stop-opacity:0;"
         offset="0"
         id="stop44431" /><stop
         style="stop-color:#000000;stop-opacity:1;"
         offset="0.4969475"
         id="stop44439" /><stop
         style="stop-color:#000000;stop-opacity:0;"
         offset="1"
         id="stop44433" /></linearGradient><linearGradient
       id="linearGradient32596"><stop
         style="stop-color:#9c3bee;stop-opacity:1;"
         offset="0"
         id="stop32592" /><stop
         style="stop-color:#5d2ee4;stop-opacity:1"
         offset="1"
         id="stop32594" /></linearGradient><rect
       x="8077.9878"
       y="22.627417"
       width="48.08326"
       height="50.91169"
       id="rect27108" /><rect
       x="5839.333"
       y="-1000.0002"
       width="883.83838"
       height="332.49133"
       id="rect27052" /><linearGradient
       id="linearGradient21453"><stop
         style="stop-color:#c643f5;stop-opacity:1"
         offset="0"
         id="stop21449" /><stop
         style="stop-color:#5d2ee4;stop-opacity:1"
         offset="1"
         id="stop21451" /></linearGradient><rect
       x="5839.333"
       y="-1000.0002"
       width="883.83838"
       height="332.49133"
       id="rect27680" /><rect
       x="5839.333"
       y="-1000.0002"
       width="883.83838"
       height="332.49133"
       id="rect28031" /><rect
       x="5839.333"
       y="-1000.0002"
       width="883.83838"
       height="332.49133"
       id="rect32459" /><rect
       x="5839.333"
       y="-1000.0002"
       width="883.83838"
       height="332.49133"
       id="rect32461" /><rect
       x="5839.333"
       y="-1000.0002"
       width="883.83838"
       height="332.49133"
       id="rect45652" /><rect
       x="5839.333"
       y="-1000.0002"
       width="883.83838"
       height="332.49133"
       id="rect45654" /><rect
       x="5839.333"
       y="-1000.0002"
       width="883.83838"
       height="332.49133"
       id="rect46196" /><linearGradient
       xlink:href="#linearGradient21453"
       id="linearGradient46198"
       gradientUnits="userSpaceOnUse"
       x1="5842.9185"
       y1="-975.18225"
       x2="5928.9805"
       y2="-860.07373" /><rect
       x="5839.333"
       y="-1000.0002"
       width="883.83838"
       height="332.49133"
       id="rect46204" /><linearGradient
       xlink:href="#linearGradient32596"
       id="linearGradient614"
       gradientUnits="userSpaceOnUse"
       x1="4746.6855"
       y1="1234.2534"
       x2="5687.1772"
       y2="1235.6194"
       gradientTransform="matrix(0.625,0,0,0.625,4906.2682,1755.4894)" /><linearGradient
       xlink:href="#linearGradient32596"
       id="linearGradient618"
       gradientUnits="userSpaceOnUse"
       x1="4950.8047"
       y1="1236.9747"
       x2="5687.0391"
       y2="1233.0206"
       gradientTransform="matrix(0.625,0,0,0.625,4906.2682,1755.4894)" /><linearGradient
       xlink:href="#linearGradient44435"
       id="linearGradient616"
       gradientUnits="userSpaceOnUse"
       x1="5283.6445"
       y1="1236.9747"
       x2="5425.0664"
       y2="1378.3945"
       gradientTransform="matrix(0.78043444,-0.15543446,-0.15543446,0.78043444,4299.2583,2362.4993)" /><rect
       x="5839.333"
       y="-1000.0002"
       width="883.83838"
       height="332.49133"
       id="rect947" /><rect
       x="5839.333"
       y="-1000.0002"
       width="883.83838"
       height="332.49133"
       id="rect949" /><rect
       x="5839.333"
       y="-1000.0002"
       width="883.83838"
       height="332.49133"
       id="rect27052-6" /><rect
       x="5839.333"
       y="-1000.0002"
       width="883.83838"
       height="332.49133"
       id="rect27680-6" /></defs><g
     id="layer1"
     transform="translate(-8000.5209,-2364.7678)"><g
       id="g1130"
       transform="translate(0,66.290603)"><path
         id="path552"
         style="color:#000000;fill:url(#linearGradient614);fill-opacity:1;stroke-width:0.625;stroke-linecap:round;stroke-linejoin:round"
         d="m 8142.255,2506.5013 a 31.253125,31.253125 0 0 0 0,44.1941 l 132.5825,132.5826 a 31.253125,31.253125 0 0 0 44.1942,0 l 132.5811,-132.5812 a 31.253125,31.253125 0 0 0 0,-44.1941 l -132.5825,-132.5826 a 31.253125,31.253125 0 0 0 -22.0957,-9.1523 31.253125,31.253125 0 0 0 -22.0971,9.1509 z m 88.3773,0.011 44.2162,-44.2162 a 31.253125,31.253125 0 0 1 44.1818,0.01 l 22.0984,22.0984 22.0985,22.0985 a 31.253125,31.253125 0 0 1 0.01,44.1818 l -44.2162,44.2162 a 31.253125,31.253125 0 0 1 -44.1817,-0.01 l -22.0985,-22.0985 -22.0985,-22.0984 a 31.253125,31.253125 0 0 1 -0.01,-44.1818 z" /><path
         id="path554"
         style="fill:url(#linearGradient616);fill-opacity:1;stroke:none;stroke-width:1.5296px;stroke-linecap:butt;stroke-linejoin:miter;stroke-opacity:1"
         d="m 8164.352,2572.7925 88.3884,88.3884 66.1753,-66.1752 -0.017,-0.017 a 31.253125,31.253125 0 0 1 -44.0602,-0.098 l -22.0985,-22.0985 -22.0984,-22.0984 a 31.253125,31.253125 0 0 1 -0.098,-44.0602 l -0.016,-0.016 z" /><path
         id="path556"
         style="color:#000000;fill:url(#linearGradient618);fill-opacity:1;stroke-width:0.625;stroke-linecap:round;stroke-linejoin:round"
         d="m 8009.6725,2506.5013 c -12.2021,12.2047 -12.2021,31.9896 -10e-5,44.1941 l 132.5826,132.5826 c 12.2034,12.2034 31.9895,12.2021 44.1942,0 l 132.5825,-132.5826 c 12.2038,-12.2038 12.2038,-31.9902 0,-44.1941 -12.2044,-12.2044 -31.9912,-12.2058 -44.1956,0 l -66.2912,66.2912 -22.0971,22.0971 a 31.253125,31.253125 0 0 1 -44.1942,0 l -15.3782,-15.3782 -14.225,-14.225 -14.5896,-14.5896 c -12.2033,-12.2033 -12.2021,-31.9895 0,-44.1941 l 9.9989,-9.999 78.3881,-78.388 c 12.2038,-12.2038 12.2039,-31.9904 0,-44.1942 -5.8604,-5.8608 -13.809,-9.1535 -22.0971,-9.1537 -8.2882,2e-4 -16.2367,3.293 -22.0971,9.1537 z" /></g></g></svg>
